<?xml version="1.0" encoding="UTF-8"?>
<svg id="Layer_2" data-name="Layer 2" xmlns="http://www.w3.org/2000/svg" viewBox="0 0 155.91 156.47">
  <g id="Avatars">
    <g>
      <rect x="0" y="0" width="155.91" height="155.91" rx="77.95" ry="77.95" fill="#a9a49c"/>
      <g>
        <g>
          <g>
            <path d="m131.1,120.42c0-4.08-3.31-7.39-7.39-7.39h-7.53v43.06h14.92v-35.67Z" fill="#e7e4d2"/>
            <path d="m39.73,113.03h-7.53c-4.08,0-7.39,3.31-7.39,7.39v35.67h14.92v-43.06Z" fill="#e7e4d2"/>
          </g>
          <path d="m32.95,92.84h90.01c5.95,0,10.78,4.83,10.78,10.78v13.79c0,3.22-2.61,5.83-5.83,5.83H27.07c-2.71,0-4.91-2.2-4.91-4.91v-14.71c0-5.95,4.83-10.78,10.78-10.78Z" fill="#435055"/>
          <path d="m114.29,111.27c0-7.04-5.71-12.74-12.74-12.74h-47.18c-7.04,0-12.74,5.71-12.74,12.74v44.83h72.67v-44.83Z" fill="#fff" stroke="#231f20" stroke-width=".75"/>
          <g>
            <path d="m77.95,142.51h0c-2.54,0-4.6-2.06-4.6-4.6v-20.28c0-2.54,2.06-4.6,4.6-4.6h0c2.54,0,4.6,2.06,4.6,4.6v20.28c0,2.54-2.06,4.6-4.6,4.6Z" fill="#c7bfb1"/>
            <g>
              <path d="m79.87,118.27c0,1.06-.86,1.92-1.92,1.92s-1.92-.86-1.92-1.92.86-1.92,1.92-1.92,1.92.86,1.92,1.92Z" fill="#3c989e"/>
              <circle cx="77.95" cy="127.77" r="1.92" fill="#3c989e"/>
              <circle cx="77.95" cy="137.28" r="1.92" fill="#3c989e"/>
            </g>
          </g>
          <g>
            <path d="m90.37,98.76c-8.16,1.63-16.67,1.54-24.83-.24v-24.08c8.16-1.78,16.67-1.87,24.83-.24v24.57Z" fill="#c7bfb1"/>
            <path d="m90.37,93.74c-8.16,1.63-16.67,1.54-24.83-.24v-24.08c8.16-1.78,16.67-1.87,24.83-.24v24.57Z" fill="#a9a49c"/>
          </g>
        </g>
        <g>
          <g>
            <g>
              <rect x="48.06" y="23.51" width="1.63" height="31.53" fill="#435055"/>
              <g>
                <circle cx="48.88" cy="22.1" r="4.66" fill="#fff" stroke="#231f20" stroke-width=".75"/>
                <circle cx="48.88" cy="22.1" r="3.29" fill="#c7bfb1"/>
              </g>
              <path d="m47.5,48.39h6.92v22.11h-6.92c-2.3,0-4.17-1.87-4.17-4.17v-13.77c0-2.3,1.87-4.17,4.17-4.17Z" fill="#435055"/>
            </g>
            <g>
              <rect x="106.21" y="23.51" width="1.63" height="31.53" fill="#435055"/>
              <g>
                <circle cx="107.03" cy="22.1" r="4.66" fill="#fff" stroke="#231f20" stroke-width=".75"/>
                <circle cx="107.03" cy="22.1" r="3.29" fill="#c7bfb1"/>
              </g>
              <path d="m105.65,48.39h6.92v22.11h-6.92c-2.3,0-4.17-1.87-4.17-4.17v-13.77c0-2.3,1.87-4.17,4.17-4.17Z" transform="translate(214.05 118.89) rotate(180)" fill="#435055"/>
            </g>
          </g>
          <path d="m103.95,43.57v35.73c0,1.19-.26,2.32-.72,3.34-1.27,2.82-4.11,4.79-7.41,4.79h-35.73c-3.58,0-6.61-2.3-7.7-5.52-.28-.82-.43-1.7-.43-2.61v-35.73c0-4.49,3.64-8.13,8.13-8.13h35.73c4.49,0,8.13,3.64,8.13,8.13Z" fill="#fff" stroke="#231f20" stroke-width=".75"/>
          <rect x="59.23" y="74.4" width="38.71" height="10.16" fill="#47373c"/>
          <g>
            <path d="m103.95,73.98v5.32c0,4.49-3.64,8.13-8.13,8.13h-35.73c-4.49,0-8.13-3.64-8.13-8.13v-6.05h4.52c1.08,0,2.05.44,2.76,1.14.7.71,1.14,1.68,1.14,2.76,0,1.41,1.14,2.55,2.55,2.55h30.66c.54,0,1.02-.22,1.37-.57.36-.36.57-.84.57-1.37,0-2.09,1.7-3.79,3.79-3.79h4.63Z" fill="#c7bfb1"/>
            <path d="m103.95,66.73v12.57c0,1.19-.26,2.32-.72,3.34h-2.99c-1.08,0-2.04-.44-2.76-1.14-.71-.7-1.14-1.68-1.14-2.76,0-1.41-1.14-2.55-2.55-2.55h-30.66c-.54,0-1.03.21-1.37.57-.35.35-.57.84-.57,1.36,0,2.09-1.7,3.79-3.79,3.79h-5.01c-.28-.82-.43-1.7-.43-2.61v-12.57h51.99Z" fill="#e7e4d2"/>
          </g>
          <g>
            <rect x="60.38" y="47.39" width="35.15" height="19.34" rx="2.42" ry="2.42" fill="#435055"/>
            <g>
              <circle cx="68.54" cy="59.95" r="2.93" fill="#ed4067"/>
              <circle cx="87.36" cy="59.95" r="2.93" fill="#ed4067"/>
            </g>
          </g>
        </g>
      </g>
    </g>
  </g>
</svg>