<?xml version="1.0" encoding="UTF-8"?>
<svg id="Layer_2" data-name="Layer 2" xmlns="http://www.w3.org/2000/svg" viewBox="0 0 155.9 156.87">
  <g id="Avatars">
    <g>
      <rect x="0" y="0" width="155.9" height="155.91" rx="77.95" ry="77.95" fill="#ef4066"/>
      <g>
        <g>
          <g>
            <path d="m119.32,153.8v-24.95c0-.17,0-.36,0-.53-.28-13.99-11.69-25.23-25.74-25.23h-31.25c-14.04,0-25.46,11.24-25.74,25.23,0,.17,0,.36,0,.53v24.95c0,1,.06,1.98.17,2.94h82.4c.11-.97.17-1.95.17-2.94Z" fill="#fff" stroke="#231f20" stroke-width=".25"/>
            <path d="m119.32,128.85v19.44c-27.49,3.15-55.26,3.15-82.74,0v-19.44c0-.17,0-.36,0-.53,27.48,3.14,55.23,3.14,82.72,0,0,.17,0,.36,0,.53Z" fill="#e4e5d2"/>
            <g>
              <g>
                <path d="m44.9,111.75c0-1.76.5-3.18-1.26-3.18h-6.75c-5.48,0-9.93,4.44-9.93,9.93v38.25h17.93v-45Z" fill="#e4e5d2"/>
                <rect x="34.43" y="132.57" width="10.53" height="24.18" fill="#c1c3b0"/>
                <g>
                  <path d="m46.81,110.02v22.78c0,.82-.66,1.48-1.48,1.48h-18.36c-1.45,0-2.62-1.17-2.62-2.62v-11.65c0-7.04,5.7-12.74,12.74-12.74h6.98c1.52,0,2.75,1.24,2.75,2.76Z" fill="#e4e5d2"/>
                  <path d="m46.81,112.06v20.74c0,.82-.66,1.48-1.48,1.48h-16.19v-9.48c0-7.04,5.7-12.74,12.74-12.74h4.92Z" fill="#a1a99c"/>
                </g>
              </g>
              <g>
                <path d="m128.94,118.5c0-5.48-4.44-9.93-9.93-9.93h-6.75c-1.76,0-1.26,1.42-1.26,3.18v45h17.93v-38.25Z" fill="#e4e5d2"/>
                <rect x="110.94" y="132.57" width="10.53" height="24.18" fill="#c1c3b0"/>
                <g>
                  <path d="m109.09,110.02v22.78c0,.82.66,1.48,1.48,1.48h18.36c1.45,0,2.62-1.17,2.62-2.62v-11.65c0-7.04-5.7-12.74-12.74-12.74h-6.98c-1.52,0-2.75,1.24-2.75,2.76Z" fill="#e4e5d2"/>
                  <path d="m109.09,112.06v20.74c0,.82.66,1.48,1.48,1.48h16.19v-9.48c0-7.04-5.7-12.74-12.74-12.74h-4.92Z" fill="#a1a99c"/>
                </g>
              </g>
            </g>
          </g>
          <path d="m99.69,134.28c-14.45,1.65-29.04,1.65-43.48,0,0,.09,0,.19,0,.28v10.22c14.45,1.66,29.04,1.66,43.49,0v-10.22c0-.09,0-.19,0-.28Z" fill="#fff" stroke="#231f20" stroke-width=".25"/>
        </g>
        <g>
          <ellipse cx="77.95" cy="107.27" rx="9.01" ry="4.49" fill="#72686f"/>
          <path d="m84.48,68.53v39.53c-4.21,2.14-9.2,2.14-13.41,0v-39.53c4.21-2.15,9.2-2.15,13.41,0Z" fill="#e4e5d2"/>
          <path d="m84.48,88.09v13.76c-2.06.2-4.25.32-6.53.32-2.4,0-4.71-.12-6.88-.36v-13.68c2.17-.23,4.48-.36,6.88-.36,2.28,0,4.46.12,6.53.32Z" fill="#a1a99c"/>
        </g>
        <g>
          <path d="m117.45,77.44c-27.72,7.56-51.63,7.56-79.35,0-1.84-8.75-1.84-17.79,0-26.54,27.72-7.56,51.63-7.56,79.35,0,1.84,8.75,1.84,17.79,0,26.54Z" fill="#a1a99c"/>
          <path d="m112.83,63.03c0,19.26-15.62,34.88-34.88,34.88s-34.88-15.62-34.88-34.88c0-16.31,11.19-30.01,26.32-33.83,2.74-.69,5.6-1.05,8.56-1.05s5.82.36,8.56,1.05c15.13,3.82,26.32,17.52,26.32,33.83Z" fill="#c1c3b0"/>
          <g>
            <path d="m108.99,63.03c0,17.14-13.9,31.04-31.04,31.04s-31.04-13.9-31.04-31.04c0-14.51,9.96-26.71,23.43-30.11,2.44-.62,4.99-.94,7.62-.94s5.18.32,7.62.94c13.46,3.4,23.42,15.59,23.42,30.11Z" fill="#e4e5d2"/>
            <path d="m89.88,57.8h-23.86c-1.73-7.78.21-16.9,4.31-24.87,2.44-.62,4.99-.94,7.62-.94s5.18.32,7.62.94c4.1,7.99,6.05,17.09,4.32,24.87Z" fill="#fff" stroke="#231f20" stroke-width=".25"/>
            <g>
              <path d="m81.71,80.02c0,.87-.29,1.68-.77,2.33-.71.97-1.86,1.6-3.17,1.6s-2.44-.62-3.16-1.59c-.49-.65-.78-1.47-.78-2.34,0-2.18,1.77-3.94,3.94-3.94s3.94,1.76,3.94,3.94Z" fill="#423a3c"/>
              <path d="m80.94,82.35c-.71.97-1.86,1.6-3.17,1.6s-2.44-.62-3.16-1.59c.34-1.44,1.62-2.52,3.16-2.52s2.82,1.07,3.17,2.51Z" fill="#a69996"/>
            </g>
            <g>
              <path d="m99.67,56.13v13.55c0,1.33-1.09,2.42-2.43,2.42h-38.58c-1.33,0-2.42-1.08-2.42-2.42v-13.55c0-1.34,1.08-2.43,2.42-2.43h38.58c1.33,0,2.43,1.08,2.43,2.43Z" fill="#2f282a"/>
              <path d="m99.67,58.92v10.76c0,1.33-1.09,2.42-2.43,2.42h-38.58c-1.33,0-2.42-1.08-2.42-2.42v-10.76c0-1.33,1.08-2.42,2.42-2.42h38.58c1.33,0,2.43,1.08,2.43,2.42Z" fill="#2f282a"/>
              <g>
                <rect x="62.62" y="59.84" width="5.88" height="8.69" rx=".85" ry=".85" fill="#3e989c"/>
                <circle cx="65.56" cy="64.18" r="1.68" fill="#f05871"/>
              </g>
              <g>
                <rect x="87.4" y="59.84" width="5.88" height="8.69" rx=".85" ry=".85" fill="#3e989c"/>
                <circle cx="90.34" cy="64.18" r="1.68" fill="#f05871"/>
              </g>
            </g>
          </g>
        </g>
      </g>
    </g>
  </g>
</svg>