<?xml version="1.0" encoding="UTF-8"?>
<svg id="Layer_2" data-name="Layer 2" xmlns="http://www.w3.org/2000/svg" viewBox="0 0 155.9 155.92">
  <g id="Avatars">
    <g>
      <rect x="0" y="0" width="155.9" height="155.91" rx="77.95" ry="77.95" fill="#2f282a"/>
      <g>
        <g>
          <path d="m121.9,150.58v-21.31c0-.15,0-.3-.01-.45-.3-11.95-12.42-21.55-27.34-21.55h-33.19c-14.92,0-27.04,9.6-27.34,21.55-.01.15-.01.3-.01.45v21.31c0,1.8.27,3.54.78,5.21h86.34c.51-1.67.78-3.42.78-5.21Z" fill="#fff" stroke="#231f20" stroke-width=".25"/>
          <path d="m99.93,133.82v8.3c-14.6,1.34-29.35,1.34-43.95,0v-8.3c0-.07,0-.15,0-.23,14.6,1.34,29.33,1.34,43.94,0,0,.07,0,.15,0,.23Z" fill="#eae6e4"/>
          <path d="m76.97,107.28h-15.61c-14.92,0-27.04,9.6-27.34,21.55-.01.15-.01.3-.01.45v21.31c0,1.8.27,3.54.78,5.21h42.18v-48.52Z" fill="#eae6e4"/>
          <path d="m76.97,134.59v8.54c-7.01-.02-14.02-.36-20.99-1v-8.53c6.98.63,13.97.97,20.99.99Z" fill="#fff" stroke="#231f20" stroke-width=".25"/>
        </g>
        <g>
          <g>
            <path d="m42.84,117.57c0-1.5.53-2.72-1.34-2.72h-7.17c-5.82,0-10.55,3.8-10.55,8.48v32.46h19.05v-38.22Z" fill="#fff" stroke="#231f20" stroke-width=".25"/>
            <rect x="31.72" y="135.36" width="11.19" height="20.44" fill="#c1c3b0"/>
            <g>
              <path d="m44.87,116.1v19.46c0,.7-.7,1.26-1.57,1.26h-19.51c-1.54,0-2.78-1-2.78-2.24v-9.95c0-6.01,6.06-10.88,13.53-10.88h7.41c1.61,0,2.92,1.06,2.92,2.35Z" fill="#fff" stroke="#231f20" stroke-width=".25"/>
              <path d="m44.87,117.84v17.71c0,.7-.7,1.26-1.57,1.26h-17.19v-8.09c0-6.01,6.06-10.88,13.53-10.88h5.23Z" fill="#c1b6b3"/>
            </g>
          </g>
          <g>
            <path d="m132.12,123.34c0-4.68-4.72-8.48-10.55-8.48h-7.17c-1.87,0-1.34,1.22-1.34,2.72v38.22h19.05v-32.46Z" fill="#fff" stroke="#231f20" stroke-width=".25"/>
            <rect x="113" y="135.36" width="11.19" height="20.44" fill="#c1c3b0"/>
            <g>
              <path d="m111.03,116.1v19.46c0,.7.7,1.26,1.57,1.26h19.51c1.54,0,2.78-1,2.78-2.24v-9.95c0-6.01-6.06-10.88-13.53-10.88h-7.41c-1.61,0-2.92,1.06-2.92,2.35Z" fill="#fff" stroke="#231f20" stroke-width=".25"/>
              <path d="m111.03,117.84v17.71c0,.7.7,1.26,1.57,1.26h17.19v-8.09c0-6.01-6.06-10.88-13.53-10.88h-5.23Z" fill="#c1b6b3"/>
            </g>
          </g>
        </g>
        <g>
          <path d="m95.09,114.53c0,2.12-7.67,3.84-17.14,3.84s-17.14-1.72-17.14-3.84,7.67-3.84,17.14-3.84,17.14,1.72,17.14,3.84Z" fill="#72686f"/>
          <path d="m90.38,81.44v33.76c-8.02,1.83-17.49,1.83-25.51,0v-33.76c8.02-1.84,17.49-1.84,25.51,0Z" fill="#c1c3b0"/>
          <path d="m90.38,92.68v11.75c-3.93.17-8.09.27-12.42.27-4.57,0-8.97-.11-13.09-.3v-11.68c4.13-.2,8.53-.3,13.09-.3,4.33,0,8.49.1,12.42.27Z" fill="#c1b6b3"/>
        </g>
        <g>
          <g>
            <circle cx="52.4" cy="64.45" r="10.75" fill="#c1b6b3"/>
            <circle cx="103.5" cy="64.45" r="10.75" fill="#c1b6b3"/>
          </g>
          <path d="m104.03,94.85c-17.48-.19-34.96-.38-52.43-.57-4.45-18.52-4.45-37.83,0-56.36,17.48-.19,34.96-.38,52.43-.57,4.54,18.9,4.54,38.6,0,57.5Z" fill="#c1c3b0"/>
          <path d="m104.04,37.07v57.49c-16.25,9.11-36.19,8.85-52.43-.57v-56.36c1.74-1.01,3.53-1.92,5.35-2.71,13.32-5.86,28.42-6.05,41.73-.47,1.82.76,3.61,1.63,5.35,2.61Z" fill="#e4e5d2"/>
          <path d="m87.64,58.21v32.29c-2.38,1.09-5.02,1.7-7.8,1.7h-4.08c-2.66,0-5.21-.56-7.5-1.57v-32.42h19.38Z" fill="#423a3c"/>
          <path d="m98.69,34.47v36.63c0,.31,0,.62-.02.93-.11,2.29-.63,4.46-1.48,6.46-2.87,6.72-9.54,11.43-17.32,11.43h-4.08c-7.77,0-14.45-4.71-17.32-11.43-.8-1.86-1.3-3.88-1.45-5.99-.04-.46-.06-.93-.06-1.4v-36.16c6.66-2.94,13.77-4.44,20.87-4.52,7.1-.09,14.2,1.26,20.86,4.05Z" fill="#c1b6b3"/>
          <path d="m77.81,30.42v59.5h-2.05c-7.77,0-14.45-4.71-17.32-11.43-.97-2.27-1.51-4.77-1.51-7.4v-36.16c6.66-2.94,13.77-4.44,20.87-4.52Z" fill="#c1c3b0"/>
          <g>
            <g>
              <path d="m98.69,50.25v22.1h-41.73v-22.55c2.85-2.55,6.5-4.08,10.48-4.08s7.36,1.42,10.15,3.8c2.8-2.38,6.32-3.8,10.15-3.8,4.21,0,8.05,1.71,10.95,4.53Z" fill="#2f282a"/>
              <path d="m98.69,55.67v15.1c0,.31,0,.62-.02.93-.23.23-.48.43-.73.65h-40.7c-.07-.07-.15-.11-.22-.18-.04-.46-.06-.93-.06-1.4v-15.55c2.85-2.55,6.5-4.08,10.48-4.08s7.36,1.42,10.15,3.8c2.8-2.38,6.32-3.8,10.15-3.8,4.21,0,8.05,1.71,10.95,4.53Z" fill="#423a3c"/>
            </g>
            <g>
              <g>
                <path d="m70.6,63.43c0,2.34-1.89,4.23-4.23,4.23s-4.23-1.89-4.23-4.23,1.89-4.23,4.23-4.23,4.23,1.89,4.23,4.23Z" fill="#1c9ad6"/>
                <path d="m68.04,63.43c0,.92-.75,1.67-1.67,1.67s-1.67-.75-1.67-1.67.75-1.67,1.67-1.67,1.67.75,1.67,1.67Z" fill="#fff" stroke="#231f20" stroke-width=".25"/>
              </g>
              <g>
                <path d="m94.34,63.43c0,2.34-1.89,4.23-4.23,4.23s-4.23-1.89-4.23-4.23,1.89-4.23,4.23-4.23,4.23,1.89,4.23,4.23Z" fill="#1c9ad6"/>
                <path d="m91.79,63.43c0,.92-.75,1.67-1.67,1.67s-1.67-.75-1.67-1.67.75-1.67,1.67-1.67,1.67.75,1.67,1.67Z" fill="#fff" stroke="#231f20" stroke-width=".25"/>
              </g>
            </g>
            <polygon points="80.73 72.36 74.91 72.36 77.82 62.08 80.73 72.36" fill="#2f282a"/>
          </g>
        </g>
      </g>
    </g>
  </g>
</svg>